<svg width="6" height="8" viewBox="0 0 6 8" fill="none" xmlns="http://www.w3.org/2000/svg">
<path d="M2.8466 7.15341C2.43183 7.15341 2.05541 7.07529 1.71734 6.91904C1.37927 6.75995 1.11081 6.53126 0.911943 6.23296C0.713079 5.93182 0.613647 5.56819 0.613647 5.14205C0.613647 4.76705 0.687511 4.46307 0.835238 4.23012C0.982966 3.99432 1.18041 3.80966 1.42757 3.67614C1.67473 3.54262 1.94745 3.44319 2.24575 3.37785C2.54689 3.30966 2.84944 3.25569 3.15342 3.21591C3.55115 3.16478 3.87359 3.12643 4.12075 3.10086C4.37075 3.07245 4.55257 3.02557 4.6662 2.96023C4.78268 2.89489 4.84092 2.78126 4.84092 2.61932V2.58523C4.84092 2.16478 4.72586 1.83807 4.49575 1.60512C4.26848 1.37216 3.92331 1.25569 3.46024 1.25569C2.98012 1.25569 2.6037 1.3608 2.33098 1.57103C2.05825 1.78126 1.86649 2.00569 1.75569 2.24432L0.801147 1.90341C0.971602 1.50569 1.19887 1.19603 1.48297 0.974438C1.7699 0.750006 2.0824 0.593756 2.42047 0.505688C2.76137 0.414779 3.0966 0.369324 3.42615 0.369324C3.63637 0.369324 3.87785 0.394892 4.15058 0.446028C4.42615 0.494323 4.69177 0.595176 4.94745 0.748585C5.20598 0.901994 5.42047 1.13353 5.59092 1.44319C5.76137 1.75285 5.8466 2.16762 5.8466 2.68751V7.00001H4.84092V6.11364H4.78978C4.7216 6.25569 4.60797 6.40768 4.44887 6.56961C4.28978 6.73154 4.07814 6.86932 3.81393 6.98296C3.54973 7.0966 3.22728 7.15341 2.8466 7.15341ZM3.00001 6.25001C3.39774 6.25001 3.73297 6.17188 4.00569 6.01563C4.28126 5.85938 4.48865 5.65768 4.62785 5.41052C4.7699 5.16336 4.84092 4.90341 4.84092 4.63069V3.71023C4.79831 3.76137 4.70456 3.80824 4.55967 3.85086C4.41762 3.89063 4.25285 3.92614 4.06535 3.95739C3.88069 3.9858 3.7003 4.01137 3.52416 4.0341C3.35086 4.05398 3.21024 4.07103 3.10228 4.08523C2.84092 4.11932 2.5966 4.17472 2.36933 4.25143C2.1449 4.32529 1.96308 4.43751 1.82387 4.58807C1.68751 4.7358 1.61933 4.93751 1.61933 5.19319C1.61933 5.54262 1.74859 5.80682 2.00711 5.9858C2.26848 6.16194 2.59944 6.25001 3.00001 6.25001Z" fill="white"/>
</svg>
