<svg width="66" height="12" viewBox="0 0 66 12" fill="none" xmlns="http://www.w3.org/2000/svg">
<path d="M62.5242 9.13637C61.8935 9.13637 61.3494 8.99716 60.8921 8.71876C60.4375 8.43751 60.0867 8.04546 59.8395 7.54262C59.5952 7.03694 59.473 6.44887 59.473 5.77841C59.473 5.10796 59.5952 4.51705 59.8395 4.00569C60.0867 3.49148 60.4304 3.09091 60.8708 2.80398C61.3139 2.51421 61.831 2.36932 62.4219 2.36932C62.7628 2.36932 63.0994 2.42614 63.4318 2.53978C63.7642 2.65341 64.0668 2.83807 64.3395 3.09376C64.6122 3.3466 64.8296 3.68182 64.9915 4.09944C65.1534 4.51705 65.2344 5.03126 65.2344 5.64205V6.06819H60.1889V5.19887H64.2117C64.2117 4.82955 64.1378 4.50001 63.9901 4.21023C63.8452 3.92046 63.6378 3.69177 63.3679 3.52415C63.1009 3.35654 62.7855 3.27273 62.4219 3.27273C62.0213 3.27273 61.6747 3.37216 61.3821 3.57103C61.0923 3.76705 60.8693 4.02273 60.7131 4.33807C60.5568 4.65341 60.4787 4.99148 60.4787 5.35228V5.93182C60.4787 6.42614 60.5639 6.84518 60.7344 7.18893C60.9077 7.52983 61.1477 7.78978 61.4546 7.96876C61.7614 8.14489 62.1179 8.23296 62.5242 8.23296C62.7884 8.23296 63.027 8.19603 63.2401 8.12216C63.456 8.04546 63.6421 7.93182 63.7983 7.78126C63.9546 7.62785 64.0753 7.43751 64.1605 7.21023L65.1321 7.48296C65.0298 7.81251 64.858 8.10228 64.6165 8.35228C64.375 8.59944 64.0767 8.79262 63.7216 8.93182C63.3665 9.06819 62.9673 9.13637 62.5242 9.13637Z" fill="white"/>
<path d="M54.7983 9.13637C54.2529 9.13637 53.7713 8.99859 53.3537 8.72302C52.9361 8.44461 52.6094 8.05257 52.3736 7.54688C52.1378 7.03836 52.0199 6.43751 52.0199 5.74433C52.0199 5.05683 52.1378 4.46024 52.3736 3.95455C52.6094 3.44887 52.9375 3.05825 53.358 2.78268C53.7784 2.50711 54.2642 2.36933 54.8154 2.36933C55.2415 2.36933 55.5781 2.44035 55.8253 2.5824C56.0753 2.7216 56.2656 2.88069 56.3963 3.05967C56.5298 3.2358 56.6335 3.38069 56.7074 3.49433H56.7926V0.272736H57.7983V9.00001H56.8267V7.99433H56.7074C56.6335 8.11364 56.5284 8.26421 56.3921 8.44603C56.2557 8.62501 56.0611 8.78552 55.8083 8.92757C55.5554 9.06677 55.2188 9.13637 54.7983 9.13637ZM54.9347 8.23296C55.3381 8.23296 55.679 8.12785 55.9574 7.91762C56.2358 7.70455 56.4475 7.41052 56.5923 7.03552C56.7372 6.65768 56.8097 6.2216 56.8097 5.72728C56.8097 5.23865 56.7386 4.81109 56.5966 4.44461C56.4546 4.07529 56.2443 3.78836 55.9659 3.58382C55.6875 3.37643 55.3438 3.27274 54.9347 3.27274C54.5085 3.27274 54.1534 3.38211 53.8693 3.60086C53.5881 3.81677 53.3764 4.1108 53.2344 4.48296C53.0952 4.85228 53.0256 5.26705 53.0256 5.72728C53.0256 6.19319 53.0966 6.61649 53.2386 6.99717C53.3835 7.37501 53.5966 7.67614 53.8779 7.90058C54.1619 8.12217 54.5142 8.23296 54.9347 8.23296Z" fill="white"/>
<path d="M49.4791 6.32388V2.45456H50.4847V9.00001H49.4791V7.89206H49.4109C49.2575 8.22445 49.0188 8.50712 48.695 8.74007C48.3711 8.97018 47.962 9.08524 47.4677 9.08524C47.0586 9.08524 46.695 8.99575 46.3768 8.81678C46.0586 8.63496 45.8086 8.36223 45.6268 7.99859C45.445 7.63212 45.3541 7.17047 45.3541 6.61365V2.45456H46.3597V6.54547C46.3597 7.02274 46.4933 7.40342 46.7603 7.68751C47.0302 7.97161 47.374 8.11365 47.7916 8.11365C48.0416 8.11365 48.2958 8.04973 48.5543 7.92189C48.8157 7.79405 49.0345 7.59803 49.2106 7.33382C49.3896 7.06962 49.4791 6.73297 49.4791 6.32388Z" fill="white"/>
<path d="M40.6836 11.5909C40.1978 11.5909 39.7802 11.5284 39.4308 11.4034C39.0813 11.2813 38.7901 11.1193 38.5572 10.9176C38.3271 10.7188 38.1438 10.5057 38.0075 10.2784L38.8086 9.71591C38.8995 9.83523 39.0146 9.9716 39.1538 10.125C39.293 10.2813 39.4833 10.4162 39.7248 10.5298C39.9691 10.6463 40.2887 10.7046 40.6836 10.7046C41.212 10.7046 41.6481 10.5767 41.9918 10.321C42.3356 10.0653 42.5075 9.66478 42.5075 9.11932V7.78978H42.4222C42.3484 7.9091 42.2433 8.05682 42.1069 8.23296C41.9734 8.40626 41.7802 8.56109 41.5274 8.69745C41.2774 8.83097 40.9393 8.89773 40.5131 8.89773C39.9847 8.89773 39.5103 8.77273 39.0899 8.52273C38.6722 8.27273 38.3413 7.9091 38.097 7.43182C37.8555 6.95455 37.7347 6.37501 37.7347 5.69319C37.7347 5.02273 37.8526 4.43893 38.0884 3.94177C38.3242 3.44177 38.6524 3.0554 39.0728 2.78268C39.4933 2.50711 39.9791 2.36932 40.5302 2.36932C40.9563 2.36932 41.2944 2.44035 41.5444 2.58239C41.7972 2.7216 41.9904 2.88069 42.1239 3.05966C42.2603 3.2358 42.3654 3.38069 42.4393 3.49432H42.5416V2.45455H43.5131V9.18751C43.5131 9.75001 43.3853 10.2074 43.1296 10.5597C42.8768 10.9148 42.5359 11.1747 42.1069 11.3395C41.6808 11.5071 41.2063 11.5909 40.6836 11.5909ZM40.6495 7.99432C41.0529 7.99432 41.3938 7.90199 41.6722 7.71733C41.9507 7.53268 42.1623 7.26705 42.3072 6.92046C42.4521 6.57387 42.5245 6.1591 42.5245 5.67614C42.5245 5.20455 42.4535 4.78836 42.3114 4.42756C42.1694 4.06677 41.9592 3.7841 41.6808 3.57955C41.4024 3.37501 41.0586 3.27273 40.6495 3.27273C40.2234 3.27273 39.8683 3.38069 39.5842 3.5966C39.3029 3.81251 39.0913 4.10228 38.9492 4.46591C38.81 4.82955 38.7404 5.23296 38.7404 5.67614C38.7404 6.13069 38.8114 6.53268 38.9535 6.88211C39.0984 7.2287 39.3114 7.50143 39.5927 7.70029C39.8768 7.89631 40.2291 7.99432 40.6495 7.99432Z" fill="white"/>
<path d="M32.0277 5.06251V9.00001H31.022V2.45455H31.9936V3.47728H32.0788C32.2323 3.14489 32.4652 2.87785 32.7777 2.67614C33.0902 2.4716 33.4936 2.36932 33.9879 2.36932C34.4311 2.36932 34.8189 2.46023 35.1513 2.64205C35.4837 2.82103 35.7422 3.09376 35.9269 3.46023C36.1115 3.82387 36.2038 4.2841 36.2038 4.84091V9.00001H35.1982V4.9091C35.1982 4.39489 35.0646 3.99432 34.7976 3.70739C34.5306 3.41762 34.1641 3.27273 33.6982 3.27273C33.3771 3.27273 33.0902 3.34234 32.8374 3.48154C32.5874 3.62074 32.3899 3.82387 32.245 4.09091C32.1002 4.35796 32.0277 4.68182 32.0277 5.06251Z" fill="white"/>
<path d="M28.1743 9V2.45455H29.18V9H28.1743ZM28.6857 1.36364C28.4897 1.36364 28.3206 1.29688 28.1786 1.16335C28.0394 1.02983 27.9698 0.869318 27.9698 0.681818C27.9698 0.494318 28.0394 0.333807 28.1786 0.200284C28.3206 0.0667613 28.4897 0 28.6857 0C28.8817 0 29.0493 0.0667613 29.1885 0.200284C29.3306 0.333807 29.4016 0.494318 29.4016 0.681818C29.4016 0.869318 29.3306 1.02983 29.1885 1.16335C29.0493 1.29688 28.8817 1.36364 28.6857 1.36364Z" fill="white"/>
<path d="M26.847 2.45456L24.4265 9.00001H23.4038L20.9833 2.45456H22.0742L23.8811 7.67047H23.9492L25.7561 2.45456H26.847Z" fill="white"/>
<path d="M15.7152 5.06251V9.00001H14.7095V2.45455H15.6811V3.47728H15.7664C15.9198 3.14489 16.1527 2.87785 16.4652 2.67614C16.7777 2.4716 17.1811 2.36932 17.6754 2.36932C18.1186 2.36932 18.5064 2.46023 18.8388 2.64205C19.1712 2.82103 19.4297 3.09376 19.6144 3.46023C19.799 3.82387 19.8914 4.2841 19.8914 4.84091V9.00001H18.8857V4.9091C18.8857 4.39489 18.7521 3.99432 18.4851 3.70739C18.2181 3.41762 17.8516 3.27273 17.3857 3.27273C17.0646 3.27273 16.7777 3.34234 16.5249 3.48154C16.2749 3.62074 16.0774 3.82387 15.9325 4.09091C15.7877 4.35796 15.7152 4.68182 15.7152 5.06251Z" fill="white"/>
<path d="M10.4695 9.13637C9.83879 9.13637 9.29476 8.99716 8.83737 8.71876C8.38282 8.43751 8.03197 8.04546 7.78481 7.54262C7.54049 7.03694 7.41833 6.44887 7.41833 5.77841C7.41833 5.10796 7.54049 4.51705 7.78481 4.00569C8.03197 3.49148 8.37572 3.09091 8.81606 2.80398C9.25924 2.51421 9.77629 2.36932 10.3672 2.36932C10.7081 2.36932 11.0448 2.42614 11.3771 2.53978C11.7095 2.65341 12.0121 2.83807 12.2848 3.09376C12.5575 3.3466 12.7749 3.68182 12.9368 4.09944C13.0987 4.51705 13.1797 5.03126 13.1797 5.64205V6.06819H8.13424V5.19887H12.157C12.157 4.82955 12.0831 4.50001 11.9354 4.21023C11.7905 3.92046 11.5831 3.69177 11.3132 3.52415C11.0462 3.35654 10.7308 3.27273 10.3672 3.27273C9.96663 3.27273 9.62004 3.37216 9.32743 3.57103C9.03765 3.76705 8.81464 4.02273 8.65839 4.33807C8.50214 4.65341 8.42402 4.99148 8.42402 5.35228V5.93182C8.42402 6.42614 8.50924 6.84518 8.6797 7.18893C8.85299 7.52983 9.09305 7.78978 9.39987 7.96876C9.70669 8.14489 10.0632 8.23296 10.4695 8.23296C10.7337 8.23296 10.9723 8.19603 11.1854 8.12216C11.4013 8.04546 11.5874 7.93182 11.7436 7.78126C11.8999 7.62785 12.0206 7.43751 12.1058 7.21023L13.0774 7.48296C12.9752 7.81251 12.8033 8.10228 12.5618 8.35228C12.3203 8.59944 12.022 8.79262 11.6669 8.93182C11.3118 9.06819 10.9127 9.13637 10.4695 9.13637Z" fill="white"/>
<path d="M0.0568237 9.00001V0.272736H3.10796C3.71591 0.272736 4.21734 0.377849 4.61222 0.588077C5.00711 0.795463 5.30114 1.07529 5.49432 1.42757C5.68751 1.777 5.7841 2.16478 5.7841 2.59092C5.7841 2.96592 5.71734 3.27558 5.58381 3.51989C5.45313 3.76421 5.27984 3.9574 5.06393 4.09944C4.85086 4.24149 4.61932 4.3466 4.36932 4.41478V4.50001C4.63637 4.51705 4.90484 4.6108 5.17472 4.78126C5.44461 4.95171 5.67046 5.19603 5.85228 5.51421C6.0341 5.83239 6.12501 6.2216 6.12501 6.68183C6.12501 7.11933 6.02557 7.51279 5.82671 7.86222C5.62785 8.21166 5.31393 8.48865 4.88495 8.69319C4.45597 8.89774 3.89773 9.00001 3.21023 9.00001H0.0568237ZM1.11364 8.06251H3.21023C3.90057 8.06251 4.39063 7.92899 4.6804 7.66194C4.97302 7.39205 5.11932 7.06535 5.11932 6.68183C5.11932 6.38637 5.04404 6.11364 4.89347 5.86364C4.7429 5.6108 4.52841 5.4091 4.25001 5.25853C3.9716 5.10512 3.64205 5.02842 3.26137 5.02842H1.11364V8.06251ZM1.11364 4.10796H3.07387C3.39205 4.10796 3.67898 4.04546 3.93466 3.92046C4.19319 3.79546 4.39773 3.61933 4.5483 3.39205C4.70171 3.16478 4.77841 2.89774 4.77841 2.59092C4.77841 2.2074 4.64489 1.88211 4.37785 1.61507C4.1108 1.34518 3.68751 1.21024 3.10796 1.21024H1.11364V4.10796Z" fill="white"/>
</svg>
