<svg width="9" height="10" viewBox="0 0 9 10" fill="none" xmlns="http://www.w3.org/2000/svg">
<path d="M5.69426 9.15341C5.27949 9.15341 4.90306 9.07529 4.565 8.91904C4.22693 8.75995 3.95846 8.53126 3.7596 8.23296C3.56074 7.93182 3.4613 7.56819 3.4613 7.14205C3.4613 6.76705 3.53517 6.46307 3.68289 6.23012C3.83062 5.99432 4.02807 5.80966 4.27522 5.67614C4.52238 5.54262 4.79511 5.44319 5.09341 5.37785C5.39454 5.30966 5.6971 5.25569 6.00108 5.21591C6.3988 5.16478 6.72125 5.12643 6.96841 5.10086C7.21841 5.07245 7.40022 5.02557 7.51386 4.96023C7.63034 4.89489 7.68858 4.78126 7.68858 4.61932V4.58523C7.68858 4.16478 7.57352 3.83807 7.34341 3.60512C7.11613 3.37216 6.77096 3.25569 6.30789 3.25569C5.82778 3.25569 5.45136 3.3608 5.17863 3.57103C4.90591 3.78126 4.71414 4.00569 4.60335 4.24432L3.6488 3.90341C3.81926 3.50569 4.04653 3.19603 4.33062 2.97444C4.61755 2.75001 4.93005 2.59376 5.26812 2.50569C5.60903 2.41478 5.94426 2.36932 6.2738 2.36932C6.48403 2.36932 6.72551 2.39489 6.99824 2.44603C7.2738 2.49432 7.53943 2.59518 7.79511 2.74858C8.05363 2.90199 8.26812 3.13353 8.43858 3.44319C8.60903 3.75285 8.69426 4.16762 8.69426 4.68751V9.00001H7.68858V8.11364H7.63744C7.56926 8.25569 7.45562 8.40768 7.29653 8.56961C7.13744 8.73154 6.92579 8.86932 6.66159 8.98296C6.39738 9.0966 6.07494 9.15341 5.69426 9.15341ZM5.84767 8.25001C6.24539 8.25001 6.58062 8.17188 6.85335 8.01563C7.12892 7.85938 7.3363 7.65768 7.47551 7.41052C7.61755 7.16336 7.68858 6.90341 7.68858 6.63069V5.71023C7.64596 5.76137 7.55221 5.80824 7.40733 5.85086C7.26528 5.89063 7.10051 5.92614 6.91301 5.95739C6.72835 5.9858 6.54795 6.01137 6.37182 6.0341C6.19852 6.05398 6.05789 6.07103 5.94994 6.08523C5.68858 6.11932 5.44426 6.17472 5.21699 6.25143C4.99255 6.32529 4.81074 6.43751 4.67153 6.58807C4.53517 6.7358 4.46699 6.93751 4.46699 7.19319C4.46699 7.54262 4.59625 7.80682 4.85477 7.9858C5.11613 8.16194 5.4471 8.25001 5.84767 8.25001Z" fill="white"/>
<path d="M1.92615 0.272736V9.00001H0.920471V0.272736H1.92615Z" fill="white"/>
</svg>
