<svg width="30" height="8" viewBox="0 0 30 8" fill="none" xmlns="http://www.w3.org/2000/svg">
<path d="M26.5419 7.15341C26.1271 7.15341 25.7507 7.07529 25.4127 6.91904C25.0746 6.75995 24.8061 6.53126 24.6073 6.23296C24.4084 5.93182 24.309 5.56819 24.309 5.14205C24.309 4.76705 24.3828 4.46307 24.5306 4.23012C24.6783 3.99432 24.8757 3.80966 25.1229 3.67614C25.37 3.54262 25.6428 3.44319 25.9411 3.37785C26.2422 3.30966 26.5448 3.25569 26.8487 3.21591C27.2465 3.16478 27.5689 3.12643 27.8161 3.10086C28.0661 3.07245 28.2479 3.02557 28.3615 2.96023C28.478 2.89489 28.5362 2.78126 28.5362 2.61932V2.58523C28.5362 2.16478 28.4212 1.83807 28.1911 1.60512C27.9638 1.37216 27.6186 1.25569 27.1556 1.25569C26.6754 1.25569 26.299 1.3608 26.0263 1.57103C25.7536 1.78126 25.5618 2.00569 25.451 2.24432L24.4965 1.90341C24.6669 1.50569 24.8942 1.19603 25.1783 0.974438C25.4652 0.750006 25.7777 0.593756 26.1158 0.505688C26.4567 0.414779 26.7919 0.369324 27.1215 0.369324C27.3317 0.369324 27.5732 0.394892 27.8459 0.446028C28.1215 0.494323 28.3871 0.595176 28.6428 0.748585C28.9013 0.901994 29.1158 1.13353 29.2862 1.44319C29.4567 1.75285 29.5419 2.16762 29.5419 2.68751V7.00001H28.5362V6.11364H28.4851C28.4169 6.25569 28.3033 6.40768 28.1442 6.56961C27.9851 6.73154 27.7734 6.86932 27.5092 6.98296C27.245 7.0966 26.9226 7.15341 26.5419 7.15341ZM26.6953 6.25001C27.0931 6.25001 27.4283 6.17188 27.701 6.01563C27.9766 5.85938 28.184 5.65768 28.3232 5.41052C28.4652 5.16336 28.5362 4.90341 28.5362 4.63069V3.71023C28.4936 3.76137 28.3999 3.80824 28.255 3.85086C28.1129 3.89063 27.9482 3.92614 27.7607 3.95739C27.576 3.9858 27.3956 4.01137 27.2195 4.0341C27.0462 4.05398 26.9056 4.07103 26.7976 4.08523C26.5362 4.11932 26.2919 4.17472 26.0646 4.25143C25.8402 4.32529 25.6584 4.43751 25.5192 4.58807C25.3828 4.7358 25.3146 4.93751 25.3146 5.19319C25.3146 5.54262 25.4439 5.80682 25.7024 5.9858C25.9638 6.16194 26.2948 6.25001 26.6953 6.25001Z" fill="white"/>
<path d="M23.4876 0.454559L21.0671 7.00001H20.0444L17.624 0.454559H18.7149L20.5217 5.67047H20.5899L22.3967 0.454559H23.4876Z" fill="white"/>
<path d="M14.0945 7.13637C13.4638 7.13637 12.9198 6.99716 12.4624 6.71876C12.0078 6.43751 11.657 6.04546 11.4098 5.54262C11.1655 5.03694 11.0433 4.44887 11.0433 3.77841C11.0433 3.10796 11.1655 2.51705 11.4098 2.00569C11.657 1.49148 12.0007 1.09091 12.4411 0.803983C12.8842 0.51421 13.4013 0.369324 13.9922 0.369324C14.3331 0.369324 14.6698 0.426142 15.0021 0.539778C15.3345 0.653414 15.6371 0.838074 15.9098 1.09376C16.1825 1.3466 16.3999 1.68182 16.5618 2.09944C16.7237 2.51705 16.8047 3.03126 16.8047 3.64205V4.06819H11.7592V3.19887H15.782C15.782 2.82955 15.7081 2.50001 15.5604 2.21023C15.4155 1.92046 15.2081 1.69177 14.9382 1.52415C14.6712 1.35654 14.3558 1.27273 13.9922 1.27273C13.5916 1.27273 13.245 1.37216 12.9524 1.57103C12.6627 1.76705 12.4396 2.02273 12.2834 2.33807C12.1271 2.65341 12.049 2.99148 12.049 3.35228V3.93182C12.049 4.42614 12.1342 4.84518 12.3047 5.18893C12.478 5.52983 12.7181 5.78978 13.0249 5.96876C13.3317 6.14489 13.6882 6.23296 14.0945 6.23296C14.3587 6.23296 14.5973 6.19603 14.8104 6.12216C15.0263 6.04546 15.2124 5.93182 15.3686 5.78126C15.5249 5.62785 15.6456 5.43751 15.7308 5.21023L16.7024 5.48296C16.6002 5.81251 16.4283 6.10228 16.1868 6.35228C15.9453 6.59944 15.647 6.79262 15.2919 6.93182C14.9368 7.06819 14.5377 7.13637 14.0945 7.13637Z" fill="white"/>
<path d="M0.920471 7.00001V0.454551H1.89206V1.47728H1.97729C2.11365 1.12785 2.33382 0.85654 2.6378 0.663358C2.94178 0.467335 3.30683 0.369324 3.73297 0.369324C4.16479 0.369324 4.52416 0.467335 4.8111 0.663358C5.10087 0.85654 5.32672 1.12785 5.48865 1.47728H5.55683C5.72445 1.13921 5.97587 0.870744 6.3111 0.671881C6.64632 0.470176 7.04831 0.369324 7.51706 0.369324C8.10229 0.369324 8.58098 0.552563 8.95314 0.91904C9.3253 1.28268 9.51138 1.84944 9.51138 2.61932V7.00001H8.5057V2.61932C8.5057 2.13637 8.3736 1.7912 8.10939 1.58381C7.84519 1.37643 7.53411 1.27273 7.17615 1.27273C6.71593 1.27273 6.35939 1.41194 6.10655 1.69035C5.85371 1.96591 5.72729 2.31535 5.72729 2.73864V7.00001H4.70456V2.51705C4.70456 2.14489 4.58382 1.84518 4.34235 1.6179C4.10087 1.38779 3.78979 1.27273 3.40911 1.27273C3.14774 1.27273 2.90343 1.34234 2.67615 1.48154C2.45172 1.62074 2.2699 1.81393 2.1307 2.06109C1.99434 2.3054 1.92615 2.58807 1.92615 2.9091V7.00001H0.920471Z" fill="white"/>
</svg>
