<svg width="25" height="10" viewBox="0 0 25 10" fill="none" xmlns="http://www.w3.org/2000/svg">
<path d="M18.8224 9.00001V0.272736H19.8281V3.49433H19.9134C19.9872 3.38069 20.0895 3.2358 20.2202 3.05967C20.3537 2.88069 20.544 2.7216 20.7912 2.5824C21.0412 2.44035 21.3793 2.36933 21.8054 2.36933C22.3565 2.36933 22.8423 2.50711 23.2628 2.78268C23.6832 3.05825 24.0114 3.44887 24.2472 3.95455C24.483 4.46024 24.6009 5.05683 24.6009 5.74433C24.6009 6.43751 24.483 7.03836 24.2472 7.54688C24.0114 8.05257 23.6847 8.44461 23.2671 8.72302C22.8494 8.99859 22.3679 9.13637 21.8224 9.13637C21.402 9.13637 21.0653 9.06677 20.8125 8.92757C20.5597 8.78552 20.3651 8.62501 20.2287 8.44603C20.0923 8.26421 19.9872 8.11364 19.9134 7.99433H19.794V9.00001H18.8224ZM19.8111 5.72728C19.8111 6.2216 19.8835 6.65768 20.0284 7.03552C20.1733 7.41052 20.3849 7.70455 20.6634 7.91762C20.9418 8.12785 21.2827 8.23296 21.6861 8.23296C22.1065 8.23296 22.4574 8.12217 22.7386 7.90058C23.0227 7.67614 23.2358 7.37501 23.3778 6.99717C23.5227 6.61649 23.5952 6.19319 23.5952 5.72728C23.5952 5.26705 23.5242 4.85228 23.3821 4.48296C23.2429 4.1108 23.0313 3.81677 22.7472 3.60086C22.4659 3.38211 22.1122 3.27274 21.6861 3.27274C21.277 3.27274 20.9332 3.37643 20.6548 3.58382C20.3764 3.78836 20.1662 4.07529 20.0242 4.44461C19.8821 4.81109 19.8111 5.23865 19.8111 5.72728Z" fill="white"/>
<path d="M14.446 9.13637C13.8154 9.13637 13.2713 8.99716 12.8139 8.71876C12.3594 8.43751 12.0085 8.04546 11.7614 7.54262C11.5171 7.03694 11.3949 6.44887 11.3949 5.77841C11.3949 5.10796 11.5171 4.51705 11.7614 4.00569C12.0085 3.49148 12.3523 3.09091 12.7926 2.80398C13.2358 2.51421 13.7529 2.36932 14.3438 2.36932C14.6847 2.36932 15.0213 2.42614 15.3537 2.53978C15.6861 2.65341 15.9886 2.83807 16.2614 3.09376C16.5341 3.3466 16.7514 3.68182 16.9134 4.09944C17.0753 4.51705 17.1563 5.03126 17.1563 5.64205V6.06819H12.1108V5.19887H16.1335C16.1335 4.82955 16.0597 4.50001 15.9119 4.21023C15.7671 3.92046 15.5597 3.69177 15.2898 3.52415C15.0227 3.35654 14.7074 3.27273 14.3438 3.27273C13.9432 3.27273 13.5966 3.37216 13.304 3.57103C13.0142 3.76705 12.7912 4.02273 12.635 4.33807C12.4787 4.65341 12.4006 4.99148 12.4006 5.35228V5.93182C12.4006 6.42614 12.4858 6.84518 12.6563 7.18893C12.8296 7.52983 13.0696 7.78978 13.3764 7.96876C13.6833 8.14489 14.0398 8.23296 14.446 8.23296C14.7102 8.23296 14.9489 8.19603 15.1619 8.12216C15.3779 8.04546 15.5639 7.93182 15.7202 7.78126C15.8764 7.62785 15.9972 7.43751 16.0824 7.21023L17.054 7.48296C16.9517 7.81251 16.7798 8.10228 16.5384 8.35228C16.2969 8.59944 15.9986 8.79262 15.6435 8.93182C15.2884 9.06819 14.8892 9.13637 14.446 9.13637Z" fill="white"/>
<path d="M2.64204 9.00001L0.255676 0.272736H1.32954L3.1534 7.38069H3.23863L5.09659 0.272736H6.28977L8.14772 7.38069H8.23295L10.0568 0.272736H11.1307L8.74431 9.00001H7.6534L5.72727 2.04546H5.65909L3.73295 9.00001H2.64204Z" fill="white"/>
</svg>
